<mxfile host="app.diagrams.net">
  <diagram name="BMC_Input - Main Architecture" id="main_arch">
    <mxGraphModel dx="1800" dy="1000" grid="1" gridSize="10">
      <root>
        <mxCell id="0"/>
        <mxCell id="1" parent="0"/>
        
        <!-- Title -->
        <mxCell id="title" value="BMC_Input AWS Architecture - Main" style="rounded=0;whiteSpace=wrap;html=1;fillColor=#232F3E;strokeColor=none;fontColor=#FFFFFF;fontSize=18;fontStyle=1;align=center;" vertex="1" parent="1">
          <mxGeometry x="50" y="20" width="1500" height="50" as="geometry"/>
        </mxCell>
        
        <!-- Users -->
        <mxCell id="users" value="Users&#10;10K concurrent" style="sketch=0;outlineConnect=0;fontColor=#232F3E;gradientColor=none;fillColor=#232F3D;strokeColor=none;shape=mxgraph.aws4.users;" vertex="1" parent="1">
          <mxGeometry x="100" y="120" width="40" height="40" as="geometry"/>
        </mxCell>
        
        <!-- AWS Cloud -->
        <mxCell id="aws" value="AWS Cloud" style="rounded=1;whiteSpace=wrap;html=1;fillColor=#E3F2FD;strokeColor=#1976D2;strokeWidth=3;fontSize=14;fontStyle=1;verticalAlign=top;spacingTop=15;" vertex="1" parent="1">
          <mxGeometry x="200" y="100" width="1200" height="600" as="geometry"/>
        </mxCell>
        
        <!-- CloudFront -->
        <mxCell id="cloudfront" value="CloudFront&#10;CDN" style="sketch=0;outlineConnect=0;fontColor=#232F3E;gradientColor=#F78E04;gradientDirection=north;fillColor=#D05C17;strokeColor=#ffffff;shape=mxgraph.aws4.cloudfront;" vertex="1" parent="1">
          <mxGeometry x="250" y="150" width="35" height="35" as="geometry"/>
        </mxCell>
        
        <!-- API Gateway -->
        <mxCell id="api" value="API Gateway&#10;REST/GraphQL" style="sketch=0;outlineConnect=0;fontColor=#232F3E;gradientColor=#FF4F8B;gradientDirection=north;fillColor=#BC1356;strokeColor=#ffffff;shape=mxgraph.aws4.api_gateway;" vertex="1" parent="1">
          <mxGeometry x="400" y="150" width="35" height="35" as="geometry"/>
        </mxCell>
        
        <!-- ECS Fargate -->
        <mxCell id="ecs" value="ECS Fargate&#10;Microservices" style="sketch=0;outlineConnect=0;fontColor=#232F3E;gradientColor=#F78E04;gradientDirection=north;fillColor=#D05C17;strokeColor=#ffffff;shape=mxgraph.aws4.fargate;" vertex="1" parent="1">
          <mxGeometry x="600" y="250" width="35" height="35" as="geometry"/>
        </mxCell>
        
        <!-- RDS -->
        <mxCell id="rds" value="RDS&#10;PostgreSQL&#10;60M Products" style="sketch=0;outlineConnect=0;fontColor=#232F3E;gradientColor=#4AB29A;gradientDirection=north;fillColor=#116D5B;strokeColor=#ffffff;shape=mxgraph.aws4.rds;" vertex="1" parent="1">
          <mxGeometry x="400" y="400" width="35" height="35" as="geometry"/>
        </mxCell>
        
        <!-- Redis -->
        <mxCell id="redis" value="Redis&#10;Cache" style="sketch=0;outlineConnect=0;fontColor=#232F3E;gradientColor=#4AB29A;gradientDirection=north;fillColor=#116D5B;strokeColor=#ffffff;shape=mxgraph.aws4.elasticache;" vertex="1" parent="1">
          <mxGeometry x="600" y="400" width="35" height="35" as="geometry"/>
        </mxCell>
        
        <!-- S3 -->
        <mxCell id="s3" value="S3&#10;Documents" style="sketch=0;outlineConnect=0;fontColor=#232F3E;gradientColor=#60A337;gradientDirection=north;fillColor=#277116;strokeColor=#ffffff;shape=mxgraph.aws4.s3;" vertex="1" parent="1">
          <mxGeometry x="800" y="400" width="35" height="35" as="geometry"/>
        </mxCell>
        
        <!-- Textract -->
        <mxCell id="textract" value="Textract&#10;OCR >95%" style="sketch=0;outlineConnect=0;fontColor=#232F3E;gradientColor=#4AB29A;gradientDirection=north;fillColor=#116D5B;strokeColor=#ffffff;shape=mxgraph.aws4.textract;" vertex="1" parent="1">
          <mxGeometry x="1000" y="250" width="35" height="35" as="geometry"/>
        </mxCell>
        
        <!-- Connections -->
        <mxCell id="c1" style="endArrow=classic;html=1;strokeColor=#1976D2;strokeWidth=2;" edge="1" parent="1" source="users" target="cloudfront"/>
        <mxCell id="c2" style="endArrow=classic;html=1;strokeColor=#FF9800;strokeWidth=2;" edge="1" parent="1" source="cloudfront" target="api"/>
        <mxCell id="c3" style="endArrow=classic;html=1;strokeColor=#4CAF50;strokeWidth=2;" edge="1" parent="1" source="api" target="ecs"/>
        <mxCell id="c4" style="endArrow=classic;html=1;strokeColor=#9C27B0;strokeWidth=2;" edge="1" parent="1" source="ecs" target="redis"/>
        <mxCell id="c5" style="endArrow=classic;html=1;strokeColor=#9C27B0;strokeWidth=2;" edge="1" parent="1" source="redis" target="rds"/>
        <mxCell id="c6" style="endArrow=classic;html=1;strokeColor=#E91E63;strokeWidth=2;" edge="1" parent="1" source="ecs" target="s3"/>
        <mxCell id="c7" style="endArrow=classic;html=1;strokeColor=#E91E63;strokeWidth=2;" edge="1" parent="1" source="s3" target="textract"/>
        
      </root>
    </mxGraphModel>
  </diagram>
</mxfile>